<!-- <svg xmlns="http://www.w3.org/2000/svg" viewBox="0 0 293768 333327" shape-rendering="geometricPrecision" text-rendering="geometricPrecision" image-rendering="optimizeQuality" fill-rule="evenodd" clip-rule="evenodd"><path d="M204958 0c5369 45832 32829 78170 77253 81022v43471l-287 27V87593c-44424-2850-69965-30183-75333-76015l-47060-1v192819c6791 86790-60835 89368-86703 56462 30342 18977 79608 6642 73766-68039V0h58365zM78515 319644c-26591-5471-50770-21358-64969-44588-34496-56437-3401-148418 96651-157884v54345l-164 27v-40773C17274 145544 7961 245185 33650 286633c9906 15984 26169 27227 44864 33011z" fill="white"/><path d="M218434 11587c3505 29920 15609 55386 35948 70259-27522-10602-43651-34934-47791-70262l11843 3zm63489 82463c3786 804 7734 1348 11844 1611v51530c-25770 2537-48321-5946-74600-21749l4034 88251c0 28460 106 41467-15166 67648-34260 58734-95927 63376-137628 35401 54529 22502 137077-4810 136916-103049v-96320c26279 15803 48830 24286 74600 21748V94050zm-171890 37247c5390-1122 11048-1985 16998-2548v54345c-21666 3569-35427 10222-41862 22528-20267 38754 5827 69491 35017 74111-33931 5638-73721-28750-49999-74111 6434-12304 18180-18959 39846-22528v-51797zm64479-119719h1808-1808z" fill="white"/><path d="M206590 11578c5369 45832 30910 73164 75333 76015v51528c-25770 2539-48321-5945-74600-21748v96320c206 125717-135035 135283-173673 72939-25688-41449-16376-141089 76383-155862v52323c-21666 3569-33412 10224-39846 22528-39762 76035 98926 121273 89342-1225V11577l47060 1z"/></svg> -->

<svg fill="#ffff"  width="800px" height="800px" viewBox="0 0 512 512" id="icons" xmlns="http://www.w3.org/2000/svg"><path d="M412.19,118.66a109.27,109.27,0,0,1-9.45-5.5,132.87,132.87,0,0,1-24.27-20.62c-18.1-20.71-24.86-41.72-27.35-56.43h.1C349.14,23.9,350,16,350.13,16H267.69V334.78c0,4.28,0,8.51-.18,12.69,0,.52-.05,1-.08,1.56,0,.23,0,.47-.05.71,0,.06,0,.12,0,.18a70,70,0,0,1-35.22,55.56,68.8,68.8,0,0,1-34.11,9c-38.41,0-69.54-31.32-69.54-70s31.13-70,69.54-70a68.9,68.9,0,0,1,21.41,3.39l.1-83.94a153.14,153.14,0,0,0-118,34.52,161.79,161.79,0,0,0-35.3,43.53c-3.48,6-16.61,30.11-18.2,69.24-1,22.21,5.67,45.22,8.85,54.73v.2c2,5.6,9.75,24.71,22.38,40.82A167.53,167.53,0,0,0,115,470.66v-.2l.2.2C155.11,497.78,199.36,496,199.36,496c7.66-.31,33.32,0,62.46-13.81,32.32-15.31,50.72-38.12,50.72-38.12a158.46,158.46,0,0,0,27.64-45.93c7.46-19.61,9.95-43.13,9.95-52.53V176.49c1,.6,14.32,9.41,14.32,9.41s19.19,12.3,49.13,20.31c21.48,5.7,50.42,6.9,50.42,6.9V131.27C453.86,132.37,433.27,129.17,412.19,118.66Z"/></svg>